<svg width="407" height="316" viewBox="0 0 407 316" fill="none" xmlns="http://www.w3.org/2000/svg">
<path opacity="0.1" d="M238.222 47.3594C212.528 46.4661 188.052 38.1726 164.684 29.097C141.316 20.0214 118.17 9.96514 93.0914 5.15736C76.961 2.06466 58.512 1.62795 45.5179 10.2748C33.0081 18.612 28.9666 32.9638 26.7949 46.2954C25.1593 56.3238 24.1985 66.8763 28.6807 76.2656C31.7893 82.7845 37.3117 88.2632 41.127 94.528C54.4148 116.252 45.0256 143.042 30.6261 164.255C23.8769 174.208 16.036 183.708 10.8273 194.292C5.6185 204.877 3.20469 217.021 7.76235 227.828C12.2843 238.547 23.0551 246.582 34.7192 252.24C58.4167 263.733 86.3304 267.02 113.569 268.882C173.847 273.007 234.442 271.221 294.879 269.434C317.247 268.771 339.709 268.1 361.711 264.642C373.931 262.721 386.544 259.676 395.418 252.315C406.677 242.974 409.468 227.153 401.924 215.441C389.264 195.793 354.283 190.914 345.422 169.825C340.555 158.22 345.557 145.293 352.632 134.527C367.813 111.437 393.258 91.1772 394.6 64.7841C395.521 46.6527 383.285 28.5015 364.371 19.9221C344.549 10.8981 317.052 12.0415 302.434 26.9253C287.372 42.2618 260.907 48.1455 238.222 47.3594Z" fill="#EDB613"/>
<path d="M172.95 266.937L37.0616 266.274L23.5593 234.604L71.3036 231.139L62.9823 196.416L157.415 184.176L66.9881 152.741L74.9759 150.844L220.38 174.565L212.373 228.753L200.927 258.532L172.95 266.937Z" fill="#EDB613"/>
<path d="M39.146 253.01C39.146 253.01 47.4832 251.676 52.4855 257.568C52.4855 257.568 48.8171 260.458 40.9246 256.456L39.146 253.01Z" fill="#EDB613"/>
<path d="M38.2726 252.879C38.2726 252.879 32.9527 259.426 35.5729 266.715C35.5729 266.715 39.9083 264.98 40.3807 256.142L38.2726 252.879Z" fill="#EDB613"/>
<path d="M33.4926 242.116C33.4926 242.116 36.8274 235.998 50.1669 244.561C50.1669 244.561 48.3883 248.674 42.4967 248.341C36.6051 248.007 35.0488 245.339 33.4926 242.116Z" fill="#EDB613"/>
<path d="M32.631 241.675C32.631 241.675 25.7111 240.881 25.0402 256.722C25.0402 256.722 29.4271 257.631 32.5436 252.621C35.6601 247.611 34.3818 244.8 32.631 241.675Z" fill="#EDB613"/>
<path d="M28.6013 229.038C28.6013 229.038 32.492 218.256 46.6096 225.926C46.6096 225.926 43.3859 235.819 30.0464 232.707L28.6013 229.038Z" fill="#EDB613"/>
<path d="M24.266 212.92C24.266 212.92 31.6027 202.026 44.6087 212.126C44.6087 212.126 40.0511 222.353 25.3776 216.795L24.266 212.92Z" fill="#EDB613"/>
<path d="M22.7098 197.579C22.7098 197.579 31.2693 187.571 44.1483 197.579C44.1483 197.579 36.0335 206.361 22.7098 200.136V197.579Z" fill="#EDB613"/>
<path d="M21.3759 182.68C21.3759 182.68 30.0465 172.23 42.3856 182.124C42.3856 182.124 32.6033 191.35 21.3759 185.125V182.68Z" fill="#EDB613"/>
<path d="M22.1541 169.451C22.1541 169.451 31.2853 156.001 42.8303 165.116C42.8303 165.116 33.048 176.677 22.1541 172.008V169.451Z" fill="#EDB613"/>
<path d="M24.266 154C24.266 154 33.9371 140.66 45.1645 150.887C45.1645 150.887 33.7148 162.448 24.266 156.445V154Z" fill="#EDB613"/>
<path d="M27.4897 140.188C27.4897 140.188 38.9395 127.65 48.9282 132.644C48.9282 132.644 36.9981 145.96 26.9895 143.515L27.4897 140.188Z" fill="#EDB613"/>
<path d="M31.4916 127.095C31.4916 127.095 44.7041 111.738 52.3902 116.868C52.3902 116.868 42.6555 128.778 30.5547 129.969L31.4916 127.095Z" fill="#EDB613"/>
<path d="M37.2681 111.909C37.2681 111.909 48.833 99.3713 57.2813 102.484C57.2813 102.484 47.3879 115.49 35.7158 115.823L37.2681 111.909Z" fill="#EDB613"/>
<path d="M42.4966 97.704C42.4966 97.704 55.2803 85.6984 60.8384 87.8105C60.8384 87.8105 51.6119 101.15 41.9408 100.372L42.4966 97.704Z" fill="#EDB613"/>
<path d="M47.6101 84.5869C47.6101 84.5869 58.6152 70.243 64.6219 71.3546C64.6219 71.3546 57.9482 84.1423 47.6101 86.044V84.5869Z" fill="#EDB613"/>
<path d="M53.1604 66.9001C53.1604 66.9001 62.8871 55.9069 68.1435 55.9307C68.1435 55.9307 60.4653 70.62 52.7594 70.485L53.1604 66.9001Z" fill="#EDB613"/>
<path d="M56.4476 55.1248L65.8448 32.2253C65.8448 32.2253 66.3132 52.9254 55.2526 59.3728L56.4476 55.1248Z" fill="#EDB613"/>
<path d="M60.2629 29.8711C60.2629 29.8711 61.8191 10.7472 60.8187 9.19092C60.8187 9.19092 67.5361 25.0911 60.1993 38.3194L60.2629 29.8711Z" fill="#EDB613"/>
<path d="M28.2361 228.784C28.2361 228.784 18.4935 222.746 12.1851 237.518C12.1851 237.518 20.8557 243.275 29.3835 232.552L28.2361 228.784Z" fill="#EDB613"/>
<path d="M23.9523 212.304C23.9523 212.304 12.0024 206.853 6.20605 222.277C6.20605 222.277 15.4365 228.629 25.0401 216.203L23.9523 212.304Z" fill="#EDB613"/>
<path d="M22.1539 198.496C22.1539 198.496 13.5944 188.488 0.715454 198.496C0.715454 198.496 8.83031 207.278 22.1539 201.053V198.496Z" fill="#EDB613"/>
<path d="M21.0821 182.68C21.0821 182.68 12.4114 172.23 0.0723877 182.124C0.0723877 182.124 9.85468 191.35 21.0821 185.125V182.68Z" fill="#EDB613"/>
<path d="M22.154 169.832C22.154 169.832 16.0718 154.766 2.85144 161.245C2.85144 161.245 9.99759 174.605 21.6141 172.334L22.154 169.832Z" fill="#EDB613"/>
<path d="M25.0323 153.924C25.0323 153.924 18.9858 138.596 5.57886 145.702C5.57886 145.702 13.789 159.752 24.4368 156.29L25.0323 153.924Z" fill="#EDB613"/>
<path d="M28.7802 140.263C28.7802 140.263 26.3981 123.458 15.2819 121.953C15.2819 121.953 17.6401 139.676 27.2834 143.292L28.7802 140.263Z" fill="#EDB613"/>
<path d="M31.7734 127.126C31.7734 127.126 30.8444 106.879 21.6537 106.172C21.6537 106.172 21.9634 121.54 30.7372 129.993L31.7734 127.126Z" fill="#EDB613"/>
<path d="M38.2209 111.341C38.2209 111.341 35.4815 94.504 26.7076 92.4475C26.7076 92.4475 27.7954 108.753 37.3514 115.474L38.2209 111.341Z" fill="#EDB613"/>
<path d="M43.5369 97.843C43.5369 97.843 43.4456 80.3031 38.086 77.7266C38.086 77.7266 34.763 93.6069 41.9846 100.082L43.5369 97.843Z" fill="#EDB613"/>
<path d="M48.019 84.3884C48.019 84.3884 47.2687 66.3285 41.7185 63.7837C41.7185 63.7837 39.8208 78.076 47.1893 85.5715L48.019 84.3884Z" fill="#EDB613"/>
<path d="M53.9346 68.3412C53.9346 68.3412 53.9028 53.6518 49.9407 50.2058C49.9407 50.2058 46.0023 66.2966 51.8661 71.2949L53.9346 68.3412Z" fill="#EDB613"/>
<path d="M55.983 54.4021L52.1281 29.9543C52.1281 29.9543 46.8915 49.9874 56.1657 58.8169L55.983 54.4021Z" fill="#EDB613"/>
<path d="M56.7335 30.1013C56.7335 30.1013 46.84 13.6651 47.0425 11.8389C47.0425 11.8389 48.0946 29.0651 60.5408 37.6444L56.7335 30.1013Z" fill="#EDB613"/>
<path d="M57.8928 25.2458C57.8928 25.2458 48.5551 1.90172 44.3309 0.0119629C44.3309 0.0119629 57.6704 6.79287 58.6709 24.5789L57.8928 25.2458Z" fill="#EDB613"/>
<path d="M52.7117 70.624L52.0725 70.4295C59.9531 44.7311 61.9183 28.3466 57.6108 24.2375L58.0673 23.7532C62.6369 28.0885 60.7829 44.2944 52.7117 70.624Z" fill="#444053"/>
<path d="M31.0112 130.795L30.0663 130.457C30.904 128.103 31.8052 125.713 32.7501 123.359C40.9761 102.857 47.9793 83.785 52.4695 69.1433L53.2913 68.7463C48.7932 83.4158 41.913 103.219 33.6791 123.748C32.7381 126.059 31.8409 128.437 31.0112 130.795Z" fill="#444053"/>
<path d="M50.8934 272.241C50.7663 272.102 37.9946 257.718 29.0897 233.163C23.8719 218.787 20.9681 203.674 20.4865 188.388C19.8751 169.28 23.8849 147.945 30.7531 128.563L31.4995 129.437C16.0797 172.937 22.2055 210.212 30.3323 232.659C39.1419 256.992 51.7708 271.216 51.8938 271.359L50.8934 272.241Z" fill="#444053"/>
<path d="M250.478 241.703C250.478 241.703 241.477 252.688 248.624 269.295L176.765 300.46L169.869 301.905L166.693 288.01L168.817 270.474V260.89L250.478 241.703Z" fill="#D5D6DB"/>
<path d="M23.5593 234.605L123.018 216.473L254.805 237.467L172.95 266.937L23.5593 234.605Z" fill="#EDB613"/>
<path d="M23.5593 234.605L123.018 216.473L254.805 237.467L172.95 266.937L23.5593 234.605Z" fill="#EDB613"/>
<path d="M23.5594 234.601C23.5594 234.601 14.2575 252.224 24.9767 268.501L172.465 300.46C172.465 300.46 163.31 286.422 172.938 266.937L23.5594 234.601Z" fill="#EDB613"/>
<path opacity="0.1" d="M23.5594 234.601C23.5594 234.601 14.2575 252.224 24.9767 268.501L172.465 300.46C172.465 300.46 163.31 286.422 172.938 266.937L23.5594 234.601Z" fill="black"/>
<path opacity="0.1" d="M27.9543 240.71C27.9543 240.71 22.6384 253.605 27.9543 261.95Z" fill="black"/>
<path d="M172.465 300.46L254.805 265.325C254.805 265.325 259.41 266.318 256.433 269.692C253.455 273.067 174.053 303.835 174.053 303.835L24.9767 268.501L172.465 300.46Z" fill="#EDB613"/>
<path opacity="0.1" d="M172.465 300.46L254.805 265.325C254.805 265.325 259.41 266.318 256.433 269.692C253.455 273.067 174.053 303.835 174.053 303.835L24.9767 268.501L172.465 300.46Z" fill="black"/>
<path opacity="0.1" d="M165.716 270.486C165.716 270.486 157.776 280.015 165.716 294.307Z" fill="black"/>
<path opacity="0.1" d="M204.158 270.325L168.542 282.207L168.668 282.584L204.283 270.702L204.158 270.325Z" fill="black"/>
<path opacity="0.1" d="M211.291 269.143L168.531 285.403L168.672 285.774L211.432 269.514L211.291 269.143Z" fill="black"/>
<path opacity="0.1" d="M217.842 269.086L168.77 289.172L168.92 289.54L217.993 269.453L217.842 269.086Z" fill="black"/>
<path opacity="0.1" d="M224.967 267.366L169.342 292.493L169.506 292.854L225.13 267.728L224.967 267.366Z" fill="black"/>
<path opacity="0.1" d="M230.952 267.374L169.783 294.111L169.942 294.475L231.111 267.738L230.952 267.374Z" fill="black"/>
<path opacity="0.1" d="M244.043 265.151L170.705 296.826L170.863 297.191L244.201 265.515L244.043 265.151Z" fill="black"/>
<path opacity="0.3" d="M60.509 236.542L130.383 221.853L172.95 229.991L115.693 248.452L60.509 236.542Z" fill="white"/>
<path d="M254.805 237.467C254.805 237.467 258.418 238.924 256.298 241.175C254.178 243.426 172.938 266.937 172.938 266.937L254.805 237.467Z" fill="#EDB613"/>
<path d="M289.897 203.519C289.897 203.519 280.9 214.5 288.047 231.111L216.188 262.276L209.292 263.729L206.116 249.834L208.272 232.302V222.706L289.897 203.519Z" fill="#D5D6DB"/>
<path d="M62.9823 196.416L162.437 178.289L294.228 199.282L212.373 228.752L62.9823 196.416Z" fill="#3A3768"/>
<path d="M62.9664 196.416C62.9664 196.416 53.6606 214.039 64.3798 230.317L211.869 262.276C211.869 262.276 202.717 248.226 212.357 228.749L62.9664 196.416Z" fill="#3A3768"/>
<path opacity="0.1" d="M62.9664 196.416C62.9664 196.416 53.6606 214.039 64.3798 230.317L211.869 262.276C211.869 262.276 202.717 248.226 212.357 228.749L165.716 218.653L62.9664 196.416Z" fill="black"/>
<path opacity="0.1" d="M67.3733 202.526C67.3733 202.526 62.0614 215.417 67.3733 223.766Z" fill="black"/>
<path d="M211.884 262.276L294.228 227.141C294.228 227.141 298.829 228.133 295.852 231.508C292.874 234.882 213.472 265.65 213.472 265.65L64.3958 230.317L211.884 262.276Z" fill="#3A3768"/>
<path opacity="0.1" d="M211.884 262.276L294.228 227.141C294.228 227.141 298.829 228.133 295.852 231.508C292.874 234.882 213.472 265.65 213.472 265.65L64.3958 230.317L211.884 262.276Z" fill="black"/>
<path opacity="0.1" d="M205.135 232.302C205.135 232.302 197.195 241.83 205.135 256.122Z" fill="black"/>
<path opacity="0.1" d="M243.58 232.145L207.964 244.027L208.09 244.404L243.705 232.522L243.58 232.145Z" fill="black"/>
<path opacity="0.1" d="M250.718 230.961L207.958 247.221L208.099 247.592L250.859 231.332L250.718 230.961Z" fill="black"/>
<path opacity="0.1" d="M257.264 230.898L208.191 250.984L208.341 251.352L257.414 231.266L257.264 230.898Z" fill="black"/>
<path opacity="0.1" d="M264.392 229.179L208.768 254.306L208.932 254.668L264.556 229.541L264.392 229.179Z" fill="black"/>
<path opacity="0.1" d="M270.372 229.182L209.203 255.919L209.362 256.283L270.531 229.546L270.372 229.182Z" fill="black"/>
<path opacity="0.1" d="M283.466 226.959L210.128 258.635L210.286 258.999L283.624 227.324L283.466 226.959Z" fill="black"/>
<path opacity="0.45" d="M99.932 198.358L169.806 183.668L212.373 191.807L155.116 210.268L99.932 198.358Z" fill="white"/>
<path d="M294.228 199.282C294.228 199.282 297.837 200.739 295.721 202.987C293.605 205.234 212.373 228.748 212.373 228.748L294.228 199.282Z" fill="#3A3768"/>
<path d="M293.629 159.836C293.629 159.836 284.628 179.555 291.775 196.162L219.916 218.593L213.036 220.05L209.86 206.155L211.984 188.619V179.023L293.629 159.836Z" fill="#D5D6DB"/>
<path d="M66.7262 152.737L166.185 134.606L297.976 155.6L216.117 185.07L66.7262 152.737Z" fill="#EDB613"/>
<path d="M66.7262 152.733C66.7262 152.733 57.4084 170.357 68.1277 186.634L215.616 218.593C215.616 218.593 206.461 204.543 216.101 185.07L66.7262 152.733Z" fill="#EDB613"/>
<path opacity="0.1" d="M66.7262 152.733C66.7262 152.733 57.4084 170.357 68.1277 186.634L215.616 218.593C215.616 218.593 206.461 204.543 216.101 185.07L66.7262 152.733Z" fill="black"/>
<path opacity="0.1" d="M71.1209 158.843C71.1209 158.843 65.805 171.738 71.1209 180.083Z" fill="black"/>
<path d="M215.632 218.593L297.972 192.192C297.972 192.192 302.577 193.184 299.599 196.559C296.622 199.934 217.22 221.968 217.22 221.968L68.1434 186.634L215.632 218.593Z" fill="#EDB613"/>
<path opacity="0.1" d="M215.632 218.593L297.972 192.192C297.972 192.192 302.577 193.184 299.599 196.559C296.622 199.934 217.22 221.968 217.22 221.968L68.1434 186.634L215.632 218.593Z" fill="black"/>
<path opacity="0.1" d="M208.883 188.619C208.883 188.619 200.943 198.147 208.883 212.439Z" fill="black"/>
<path opacity="0.1" d="M247.328 188.461L211.713 200.343L211.839 200.72L247.454 188.838L247.328 188.461Z" fill="black"/>
<path opacity="0.1" d="M254.464 187.279L211.704 203.539L211.845 203.91L254.605 187.65L254.464 187.279Z" fill="black"/>
<path opacity="0.1" d="M261.006 187.218L211.933 207.305L212.084 207.672L261.157 187.586L261.006 187.218Z" fill="black"/>
<path opacity="0.1" d="M268.14 185.496L212.516 210.623L212.68 210.984L268.304 185.857L268.14 185.496Z" fill="black"/>
<path opacity="0.1" d="M274.122 185.502L212.953 212.239L213.112 212.603L274.281 185.866L274.122 185.502Z" fill="black"/>
<path opacity="0.1" d="M287.215 183.282L213.877 214.957L214.035 215.322L287.373 183.646L287.215 183.282Z" fill="black"/>
<path opacity="0.3" d="M103.676 154.674L173.549 139.985L216.116 148.124L158.86 166.585L103.676 154.674Z" fill="white"/>
<path d="M297.972 155.6C297.972 155.6 301.584 157.057 299.464 159.308C297.344 161.559 216.116 185.07 216.116 185.07L297.972 155.6Z" fill="#EDB613"/>
<path d="M123.312 35.0837C123.312 35.0837 108.226 34.1746 109.988 44.7588C109.988 44.7588 109.635 46.6288 111.33 47.4784C111.33 47.4784 111.358 46.6843 112.878 46.9583C113.421 47.0515 113.973 47.0782 114.522 47.0377C115.262 46.987 115.966 46.6972 116.527 46.2119V46.2119C116.527 46.2119 120.771 44.4571 122.423 37.5174C122.423 37.5174 123.645 36.0048 123.614 35.6157L121.057 36.7035C121.057 36.7035 121.926 38.5417 121.243 40.0702C121.243 40.0702 121.16 36.771 120.668 36.8465C120.569 36.8465 119.346 37.4857 119.346 37.4857C119.346 37.4857 120.842 40.6895 119.711 43.016C119.711 43.016 120.14 39.0697 118.877 37.7159L117.083 38.764C117.083 38.764 118.834 42.0711 117.647 44.7708C117.647 44.7708 117.952 40.63 116.706 39.0181L115.078 40.2885C115.078 40.2885 116.725 43.548 115.721 45.7871C115.721 45.7871 115.59 40.9674 114.729 40.6022C114.729 40.6022 113.303 41.8567 113.089 42.3728C113.089 42.3728 114.216 44.7549 113.514 45.9896C113.514 45.9896 113.089 42.7778 112.72 42.7619C112.72 42.7619 111.302 44.8899 111.155 46.335C111.224 44.9877 111.644 43.6819 112.374 42.5475C111.557 42.7021 110.804 43.0927 110.207 43.6711C110.207 43.6711 110.425 42.1664 112.728 42.0354C112.728 42.0354 113.899 40.4195 114.212 40.3243C114.212 40.3243 111.922 40.1297 110.536 40.7451C110.536 40.7451 111.759 39.3278 114.629 39.9511L116.217 38.641C116.217 38.641 113.208 38.2439 111.93 38.6846C111.93 38.6846 113.403 37.4301 116.65 38.3432L118.401 37.2991C118.401 37.2991 115.832 36.7472 114.304 36.9457C114.304 36.9457 115.916 36.0763 118.913 37.0172L120.16 36.4574C120.16 36.4574 118.282 36.0882 117.73 36.0286C117.178 35.9691 117.15 35.8182 117.15 35.8182C118.342 35.6225 119.565 35.7599 120.684 36.2152C120.684 36.2152 123.363 35.2505 123.312 35.0837Z" fill="#EDB613"/>
<path opacity="0.1" d="M335.553 78.5879C335.553 78.5879 320.466 77.6787 322.229 88.263C322.229 88.263 321.876 90.1329 323.571 90.9825C323.571 90.9825 323.599 90.1885 325.119 90.4624C325.662 90.5535 326.214 90.5801 326.763 90.5418C327.496 90.4878 328.193 90.1981 328.748 89.7161V89.7161C328.748 89.7161 332.996 87.9613 334.643 81.0216C334.643 81.0216 335.866 79.509 335.834 79.1199L333.286 80.2077C333.286 80.2077 334.155 82.0458 333.472 83.5743C333.472 83.5743 333.389 80.2752 332.901 80.3506C332.801 80.3506 331.575 80.9898 331.575 80.9898C331.575 80.9898 333.071 84.1937 331.944 86.5201C331.944 86.5201 332.373 82.5739 331.106 81.2201L329.312 82.2682C329.312 82.2682 331.062 85.5753 329.875 88.2749C329.875 88.2749 330.181 84.1341 328.934 82.5223L327.311 83.7927C327.311 83.7927 328.954 87.0521 327.95 89.2913C327.95 89.2913 327.819 84.4716 326.957 84.1063C326.957 84.1063 325.536 85.3609 325.318 85.877C325.318 85.877 326.445 88.259 325.746 89.4937C325.746 89.4937 325.318 86.2819 324.952 86.266C324.952 86.266 323.535 88.394 323.388 89.8391C323.457 88.4913 323.879 87.1852 324.611 86.0517C323.793 86.2066 323.038 86.5971 322.439 87.1752C322.439 87.1752 322.662 85.6705 324.96 85.5395C324.96 85.5395 326.132 83.9237 326.445 83.8244C326.445 83.8244 324.158 83.6339 322.769 84.2492C322.769 84.2492 323.992 82.8319 326.862 83.4552L328.45 82.1451C328.45 82.1451 325.437 81.7481 324.162 82.1888C324.162 82.1888 325.631 80.9342 328.883 81.8473L330.63 80.8032C330.63 80.8032 328.061 80.2514 326.533 80.4499C326.533 80.4499 328.144 79.5804 331.142 80.5213L332.392 79.9615C332.392 79.9615 330.511 79.5923 329.959 79.5328C329.407 79.4732 329.379 79.3224 329.379 79.3224C330.571 79.1241 331.794 79.2616 332.912 79.7194C332.912 79.7194 335.6 78.7546 335.553 78.5879Z" fill="#EDB613"/>
<path opacity="0.1" d="M148.72 100.471C148.72 100.471 142.146 86.8417 133.777 93.5591C133.777 93.5591 131.971 94.1625 132.058 96.0563C132.058 96.0563 132.753 95.695 133.249 97.156C133.434 97.6724 133.679 98.1654 133.979 98.6249C134.386 99.2478 134.983 99.7216 135.683 99.9748C135.683 99.9748 139.283 102.825 146.148 100.88C146.148 100.88 148.065 101.209 148.379 100.979L146.187 99.284C146.187 99.284 144.996 100.939 143.337 101.086C143.337 101.086 146.179 99.407 145.874 99.018C145.81 98.9386 144.683 98.1723 144.683 98.1723C144.683 98.1723 142.614 101.043 140.034 101.19C140.034 101.19 143.686 99.6413 144.25 97.8746L142.463 96.8185C142.463 96.8185 140.427 99.9629 137.493 100.241C137.493 100.241 141.257 98.4899 142.055 96.6161L140.157 95.822C140.157 95.822 138.112 98.8472 135.667 99.0656C135.667 99.0656 139.811 96.6002 139.708 95.6672C139.708 95.6672 137.918 95.0399 137.362 95.0995C137.362 95.0995 135.845 97.2394 134.416 97.2394C134.416 97.2394 137.009 95.298 136.85 94.9844C136.85 94.9844 134.301 94.7858 132.959 95.3814C134.168 94.7804 135.514 94.5066 136.862 94.5873C136.327 93.9497 135.618 93.482 134.821 93.2415C134.821 93.2415 136.242 92.7016 137.477 94.6429C137.477 94.6429 139.462 94.8772 139.696 95.1035C139.696 95.1035 138.747 93.0152 137.537 92.106C137.537 92.106 139.371 92.4753 140.208 95.2821L142.134 96.0444C142.134 96.0444 141.026 93.2177 140.006 92.3244C140.006 92.3244 141.816 92.9953 142.606 96.2945L144.369 97.3108C144.369 97.3108 143.603 94.7978 142.682 93.5631C142.682 93.5631 144.226 94.5476 144.865 97.6205L145.965 98.4383C145.965 98.4383 145.37 96.6161 145.171 96.1079C144.973 95.5997 145.072 95.4965 145.072 95.4965C145.827 96.4391 146.305 97.5731 146.453 98.7718C146.453 98.7718 148.577 100.59 148.72 100.471Z" fill="#EDB613"/>
<path opacity="0.1" d="M301.084 59.3331C301.084 59.3331 294.514 45.7038 286.141 52.4212C286.141 52.4212 284.339 53.0246 284.422 54.9183C284.422 54.9183 285.121 54.561 285.613 56.0181C285.798 56.5366 286.045 57.0311 286.347 57.491C286.752 58.1126 287.349 58.5852 288.047 58.8368V58.8368C288.047 58.8368 291.651 61.6873 298.512 59.746C298.512 59.746 300.429 60.0715 300.747 59.8412L298.567 58.1421C298.567 58.1421 297.376 59.8015 295.721 59.9484C295.721 59.9484 298.559 58.2651 298.254 57.8761C298.19 57.7967 297.063 57.0304 297.063 57.0304C297.063 57.0304 294.998 59.9008 292.414 60.0477C292.414 60.0477 296.07 58.4994 296.634 56.7366L294.82 55.6885C294.82 55.6885 292.787 58.8289 289.849 59.1108C289.849 59.1108 293.613 57.356 294.415 55.4821L292.513 54.6881C292.513 54.6881 290.468 57.7173 288.027 57.9316C288.027 57.9316 292.168 55.4662 292.064 54.5372C292.064 54.5372 290.278 53.906 289.722 53.9695C289.722 53.9695 288.205 56.1054 286.772 56.1054C286.772 56.1054 289.369 54.164 289.21 53.8504C289.21 53.8504 286.661 53.6519 285.315 54.2474C286.524 53.6462 287.87 53.3725 289.218 53.4534C288.685 52.8153 287.977 52.3474 287.181 52.1075C287.181 52.1075 288.602 51.5676 289.837 53.509C289.837 53.509 291.822 53.7472 292.056 53.9735C292.056 53.9735 291.108 51.8812 289.893 50.9721C289.893 50.9721 291.727 51.3453 292.565 54.168L294.494 54.9303C294.494 54.9303 293.386 52.0996 292.366 51.2063C292.366 51.2063 294.176 51.8773 294.962 55.1764L296.729 56.1927C296.729 56.1927 295.959 53.6836 295.038 52.445C295.038 52.445 296.586 53.4296 297.221 56.5024L298.321 57.3202C298.321 57.3202 297.73 55.498 297.527 54.9898C297.325 54.4816 297.428 54.3824 297.428 54.3824C298.181 55.3258 298.658 56.4596 298.805 57.6577C298.805 57.6577 300.961 59.4601 301.084 59.3331Z" fill="#EDB613"/>
<path opacity="0.1" d="M322.082 126.749C322.082 126.749 315.512 113.116 307.127 119.833C307.127 119.833 305.324 120.437 305.408 122.331C305.408 122.331 306.107 121.973 306.599 123.43C306.783 123.949 307.028 124.443 307.329 124.903C307.734 125.525 308.331 125.997 309.029 126.249C309.029 126.249 312.633 129.103 319.498 127.158C319.498 127.158 321.411 127.488 321.729 127.253L319.537 125.558C319.537 125.558 318.346 127.218 316.687 127.365C316.687 127.365 319.525 125.681 319.22 125.292C319.156 125.213 318.029 124.447 318.029 124.447C318.029 124.447 315.964 127.317 313.38 127.468C313.38 127.468 317.036 125.916 317.6 124.153L315.809 123.097C315.809 123.097 313.777 126.241 310.839 126.519C310.839 126.519 314.603 124.764 315.405 122.89L313.503 122.096C313.503 122.096 311.458 125.122 309.017 125.34C309.017 125.34 313.161 122.874 313.058 121.941C313.058 121.941 311.268 121.31 310.712 121.374C310.712 121.374 309.195 123.51 307.762 123.51C307.762 123.51 310.359 121.568 310.2 121.255C310.2 121.255 307.651 121.056 306.305 121.652C307.516 121.051 308.863 120.777 310.212 120.858C309.678 120.219 308.969 119.751 308.171 119.512C308.171 119.512 309.592 118.968 310.827 120.913C310.827 120.913 312.812 121.147 313.046 121.374C313.046 121.374 312.097 119.285 310.887 118.372C310.887 118.372 312.721 118.746 313.558 121.568L315.484 122.331C315.484 122.331 314.376 119.5 313.356 118.611C313.356 118.611 315.166 119.278 315.952 122.581L317.719 123.593C317.719 123.593 316.949 121.084 316.028 119.845C316.028 119.845 317.576 120.83 318.215 123.907L319.315 124.701C319.315 124.701 318.72 122.878 318.521 122.37C318.323 121.862 318.422 121.763 318.422 121.763C319.177 122.705 319.654 123.839 319.799 125.038C319.799 125.038 321.959 126.868 322.082 126.749Z" fill="#EDB613"/>
<path opacity="0.1" d="M80.2482 304.121C85.289 304.121 89.3754 303.664 89.3754 303.1C89.3754 302.537 85.289 302.08 80.2482 302.08C75.2074 302.08 71.121 302.537 71.121 303.1C71.121 303.664 75.2074 304.121 80.2482 304.121Z" fill="#EDB613"/>
<path opacity="0.1" d="M20.4151 286.779C25.4559 286.779 29.5423 286.323 29.5423 285.759C29.5423 285.196 25.4559 284.739 20.4151 284.739C15.3742 284.739 11.2878 285.196 11.2878 285.759C11.2878 286.323 15.3742 286.779 20.4151 286.779Z" fill="#EDB613"/>
<path opacity="0.1" d="M125.857 315.638C130.897 315.638 134.984 315.181 134.984 314.618C134.984 314.054 130.897 313.597 125.857 313.597C120.816 313.597 116.729 314.054 116.729 314.618C116.729 315.181 120.816 315.638 125.857 315.638Z" fill="#EDB613"/>
<path opacity="0.1" d="M359.576 290.551C364.617 290.551 368.703 290.094 368.703 289.531C368.703 288.967 364.617 288.51 359.576 288.51C354.535 288.51 350.448 288.967 350.448 289.531C350.448 290.094 354.535 290.551 359.576 290.551Z" fill="#EDB613"/>
<path opacity="0.1" d="M283.624 285.6C288.665 285.6 292.751 285.144 292.751 284.58C292.751 284.017 288.665 283.56 283.624 283.56C278.583 283.56 274.497 284.017 274.497 284.58C274.497 285.144 278.583 285.6 283.624 285.6Z" fill="#EDB613"/>
<path opacity="0.1" d="M234.49 309.746C240.452 309.746 245.285 308.916 245.285 307.892C245.285 306.868 240.452 306.038 234.49 306.038C228.528 306.038 223.695 306.868 223.695 307.892C223.695 308.916 228.528 309.746 234.49 309.746Z" fill="#EDB613"/>
<path d="M239.306 289.257C239.306 289.257 224.275 297.022 232.04 306.169C232.04 306.169 232.771 308.154 234.883 308.015C234.883 308.015 234.462 307.245 236.074 306.63C236.648 306.408 237.193 306.119 237.698 305.768C238.38 305.297 238.891 304.615 239.151 303.827V303.827C239.151 303.827 242.224 299.714 239.842 292.103C239.842 292.103 240.151 289.952 239.881 289.602L238.055 292.107C238.055 292.107 239.941 293.374 240.159 295.236C240.159 295.236 238.174 292.111 237.777 292.457C237.69 292.528 236.872 293.826 236.872 293.826C236.872 293.826 240.143 296.046 240.386 298.928C240.386 298.928 238.543 294.89 236.554 294.315L235.415 296.347C235.415 296.347 238.988 298.523 239.385 301.794C239.385 301.794 237.309 297.646 235.189 296.808L234.351 298.956C234.351 298.956 237.797 301.147 238.115 303.871C238.115 303.871 235.232 299.317 234.196 299.46C234.196 299.46 233.545 301.477 233.633 302.1C233.633 302.1 236.066 303.728 236.11 305.328C236.11 305.328 233.863 302.489 233.517 302.676C233.517 302.676 233.374 305.53 234.065 307.015C234.065 307.015 232.874 304.895 233.069 302.676C232.372 303.291 231.872 304.097 231.628 304.994C231.628 304.994 230.98 303.426 233.112 301.981C233.112 301.981 233.315 299.762 233.561 299.488C233.561 299.488 231.254 300.615 230.274 301.997C230.274 301.997 230.635 299.936 233.764 298.912L234.558 296.736C234.558 296.736 231.429 298.062 230.464 299.23C230.464 299.23 231.159 297.185 234.804 296.204L235.884 294.219C235.884 294.219 233.104 295.156 231.747 296.204C231.747 296.204 232.799 294.446 236.217 293.636L237.094 292.385C237.094 292.385 235.078 293.104 234.514 293.362C233.95 293.62 233.839 293.493 233.839 293.493C234.869 292.621 236.121 292.052 237.456 291.849C237.456 291.849 239.445 289.392 239.306 289.257Z" fill="#EDB613"/>
<path d="M283.918 142.59C281.321 135.535 267.029 134.872 260.828 136.67C256.421 137.953 247.131 139.398 242.168 140.124L241.847 139.819C242.49 139.628 242.506 139.16 242.426 138.465C242.38 137.549 242.393 136.631 242.466 135.717C245.507 136.662 248.215 134.427 248.215 134.427C251.788 132.839 250.827 126.042 251.51 124.184C252.022 122.795 252.574 114.609 252.82 110.527H252.872L252.899 109.158C252.935 108.566 252.951 108.221 252.951 108.221C252.951 108.221 253.3 98.2399 253.983 96.2191C254.619 94.3611 255.135 84.9997 255.214 83.5148C255.214 83.3878 255.214 83.3203 255.214 83.3203L255.162 82.4548C255.198 81.8236 255.214 81.1209 255.21 80.3824C255.21 76.988 254.857 72.7122 254.813 72.0214C254.813 71.9222 254.813 71.8031 254.813 71.6602C254.841 70.2111 254.658 62.9537 248.485 60.2104C246.21 59.1941 243.025 58.6931 240.377 57.5139C235.556 53.2779 226.834 56.0468 226.969 50.1075C226.969 49.2143 226.882 47.4478 226.969 46.5585C227.888 43.6371 232.781 36.1557 232.777 36.4296C232.777 37.0053 232.777 34.4345 232.777 35.0102C240.377 25.0859 236.872 24.0588 236.61 16.7896C236.586 17.5002 231.784 15.7343 236.663 17.8742C229.072 14.5449 237.252 19.167 236.61 16.7896C236.372 15.9519 234.585 13.7163 233.898 13.1565C233.249 12.7057 230.816 12.49 233.898 9.36552C232.02 8.88466 233.518 7.6677 231.592 7.44003C231.299 6.54428 227.888 6.47911 227.888 4.94268C223.862 -0.583679 220.616 2.77911 213.565 1.58808C210.028 0.99257 207.959 2.41394 205.553 4.94289C205.302 5.16505 201.721 4.6892 201.502 4.94292C200.207 6.48728 200.415 3.40253 199.089 4.94293C199.371 8.29765 198.807 8.59548 199.089 4.94293C196.492 7.26543 197.17 5.63761 194.284 7.72191C197.281 10.6082 195.75 10.1476 191.53 9.36552C194.87 10.1476 190.467 10.2651 189.561 11.6285C188.262 13.4547 187.949 16.7499 187.536 18.9295C186.135 22.8429 197.053 41.8101 199.089 45.8414C200.32 55.6753 194.404 55.5741 189.561 60.2104C190.111 62.5941 178.847 63.1415 180.584 64.8634C176.34 68.7064 172.728 72.4343 172.728 72.4343V72.6567H172.057L172.124 73.4507H172.057L172.426 77.7582L172.057 84.031C172.057 84.031 172.057 84.0985 172.057 84.2255V84.2572V84.428C172.057 84.428 172.057 84.4955 172.057 84.6225H172.08C172.203 86.9212 172.692 95.1869 173.271 96.9298C173.954 98.9505 174.3 108.931 174.3 108.931C174.3 108.931 175.054 123.037 175.745 124.903C176.436 126.769 175.455 133.546 179.04 135.146C180.089 135.95 181.331 136.465 182.641 136.639C182.458 138.123 182.573 139.199 183.165 139.537C183.418 139.686 183.705 139.767 183.999 139.775C183.755 140.136 183.539 140.514 183.351 140.906C181.929 140.758 180.53 140.428 179.191 139.926C175.34 138.338 162.56 134.765 158.848 137.278C155.136 139.791 146.203 142.07 150.328 152.185C154.453 162.301 156.375 162.555 156.375 162.555C157.644 163.477 158.758 164.596 159.674 165.87C160.913 167.732 172.454 171.992 175.34 171.992C176.567 171.973 177.793 172.034 179.012 172.175C179.012 172.175 175.88 174.922 176.297 176.518C176.714 178.114 175.344 190.89 175.344 190.89C175.344 190.89 178.52 194.09 179.878 189.893L179.925 189.957C180.179 190.302 181.553 191.862 184.138 189.893C185.195 189.091 186.319 188.379 187.496 187.765L200.01 185.995C201.315 185.913 202.623 185.904 203.928 185.967C205.913 186.13 207.863 184.954 209.09 184.045C211.682 185.03 214.596 186.106 215.982 186.499C218.792 187.293 231.711 190.759 234.732 189.675C235.36 189.425 235.919 189.027 236.36 188.516L239.242 188.607L237.893 188.877C237.893 188.877 240.521 188.921 244.094 188.968L243.943 189.056L248.425 189.016C254.984 189.075 262.352 189.095 263.321 188.877C264.838 188.539 272.718 188.778 275.041 188.877H275.688C275.688 188.877 284.347 187.15 280.773 178.364C278.026 171.615 269.582 169.654 265.834 169.114C266.89 168.903 267.799 168.741 268.403 168.645C271.019 168.248 276.101 165.866 276.514 165.052C276.926 164.239 281.186 161.876 282.286 160.53C283.386 159.185 286.526 149.645 283.918 142.59ZM212.198 162.333L211.773 162.472L211.487 162.567L210.94 163.107C210.503 162.813 210.034 162.504 209.546 162.186C210.408 162.238 211.293 162.289 212.198 162.333Z" fill="url(#paint0_linear)"/>
<path d="M237.511 120.472C237.511 120.472 243.586 136.353 247.04 134.765C250.494 133.177 249.557 126.427 250.216 124.577C250.875 122.727 251.605 108.697 251.605 108.697C251.605 108.697 251.939 98.7719 252.598 96.763C253.209 94.9169 253.705 85.6071 253.789 84.1421C253.789 84.015 253.789 83.9476 253.789 83.9476L253.134 72.4343L249.426 71.5093L240.826 74.6853L239.635 81.4861L239.171 84.1421L238.972 85.2736L237.511 120.472Z" fill="#6F7CBE"/>
<path opacity="0.1" d="M239.512 117.812C239.512 117.812 245.309 122.557 247.055 122.974C248.802 123.39 249.874 127.091 249.874 127.091" fill="black"/>
<path d="M190.009 121.167C190.009 121.167 183.935 137.048 180.481 135.459C177.027 133.871 177.964 127.122 177.305 125.272C176.646 123.422 175.915 109.392 175.915 109.392C175.915 109.392 175.582 99.4667 174.923 97.4578C174.312 95.6117 173.815 86.3019 173.732 84.8369C173.732 84.7099 173.732 84.6424 173.732 84.6424L174.391 73.1291L178.099 72.2041L186.698 75.3802L187.889 82.1809L188.354 84.8369L188.552 85.9684L190.009 121.167Z" fill="#6F7CBE"/>
<path d="M187.627 136.984C187.627 136.984 182.994 142.078 184.713 143.003C186.432 143.928 197.552 161.265 197.552 161.265C197.552 161.265 234.077 165.763 240.965 159.014C247.853 152.265 247.714 140.208 247.714 140.208C247.714 140.208 242.18 141.399 241.577 140.752C240.973 140.105 237.658 136.984 237.658 136.984C237.658 136.984 190.803 134.141 187.627 136.984Z" fill="#4B4B5B"/>
<path opacity="0.02" d="M187.627 136.984C187.627 136.984 182.994 142.078 184.713 143.003C186.432 143.928 197.552 161.265 197.552 161.265C197.552 161.265 234.077 165.763 240.965 159.014C247.853 152.265 247.714 140.208 247.714 140.208C247.714 140.208 242.18 141.399 241.577 140.752C240.973 140.105 237.658 136.984 237.658 136.984C237.658 136.984 190.803 134.141 187.627 136.984Z" fill="black"/>
<path d="M253.38 72.6011L241.469 82.1293L237.869 82.3913L236.547 82.4866L214.342 84.1143L191.315 82.431L187.889 82.1809L183.522 81.8633L174.391 73.1291C174.391 73.1291 180.854 66.2052 186.516 61.5325C188.747 59.6864 190.855 58.1936 192.391 57.606L192.653 57.5147C193.62 57.1379 194.482 56.5364 195.17 55.76C199.641 51.1507 203.773 39.7764 203.773 39.7764C203.773 39.7764 226.342 30.8886 223.96 44.2519C221.578 57.6152 232.825 54.3121 232.825 54.3121L233.684 54.7039L235.149 55.3749L238.885 57.086L247.313 60.9528C253.928 63.9979 253.38 72.6011 253.38 72.6011Z" fill="#6F7CBE"/>
<path opacity="0.1" d="M213.417 50.6585C223.211 50.6585 231.151 42.7185 231.151 32.9241C231.151 23.1296 223.211 15.1897 213.417 15.1897C203.622 15.1897 195.682 23.1296 195.682 32.9241C195.682 42.7185 203.622 50.6585 213.417 50.6585Z" fill="black"/>
<path opacity="0.1" d="M253.408 85.2339H173.732C173.732 85.1069 173.732 85.0394 173.732 85.0394L174.391 73.5261C174.391 73.5261 180.854 66.6023 186.516 61.9295L236.539 59.9445L238.865 57.491L247.294 61.3578C253.912 64.3989 253.38 73.0021 253.38 73.0021C253.38 73.0021 254.285 82.971 253.408 85.2339Z" fill="black"/>
<path d="M253.408 84.837H173.732C173.732 84.7099 173.732 84.6424 173.732 84.6424L174.391 73.1292C174.391 73.1292 180.854 66.2053 186.516 61.5325L236.539 59.5475L238.865 57.094L247.294 60.9609C253.912 64.0019 253.38 72.6051 253.38 72.6051C253.38 72.6051 254.285 82.574 253.408 84.837Z" fill="#CAC7E7"/>
<path opacity="0.1" d="M197.469 63.5061C197.469 63.5061 210.038 79.5214 226.78 63.1766C243.522 46.8317 228.634 99.6339 228.634 99.6339L192.506 103.922L197.469 63.5061Z" fill="black"/>
<path d="M195.235 56.165C195.235 56.165 208.47 72.1803 226.099 55.8354C246.309 44.1804 228.051 92.2928 228.051 92.2928L190.009 96.5805L195.235 56.165Z" fill="#CAC7E7"/>
<path opacity="0.1" d="M235.129 56.157L236.459 76.4402L237.885 83.1893L238.972 88.3505C238.972 88.3505 241.751 128.051 240.957 130.036C240.163 132.021 241.354 133.609 241.521 134.665C241.688 135.722 241.354 138.374 241.485 139.565C241.616 140.756 241.485 141.284 238.444 140.859C235.403 140.434 231.163 139.696 231.163 139.696C231.163 139.696 220.444 140.49 216.74 139.168C213.036 137.846 206.021 137.842 206.021 137.842C206.021 137.842 195.432 138.108 191.994 137.711C188.556 137.314 186.698 141.947 184.451 140.621C182.204 139.295 187.095 126.463 188.683 122.755C190.271 119.047 186.567 109.654 186.567 109.654L191.331 83.2251L192.391 77.2342V58.4001L192.653 58.3088C193.62 57.9319 194.483 57.3304 195.17 56.554L196.361 75.5072L233.68 76.8332V55.502" fill="black"/>
<path d="M235.129 55.2144L236.459 75.4976L237.885 82.2467L238.972 87.4078C238.972 87.4078 241.751 127.109 240.957 129.094C240.163 131.079 241.354 132.667 241.521 133.723C241.688 134.779 241.354 137.431 241.485 138.622C241.616 139.813 241.485 140.341 238.444 139.916C235.403 139.491 231.163 138.753 231.163 138.753C231.163 138.753 220.444 139.547 216.74 138.225C213.036 136.903 206.021 136.899 206.021 136.899C206.021 136.899 195.432 137.165 191.994 136.768C188.556 136.371 186.698 141.004 184.451 139.678C182.204 138.352 187.095 125.521 188.683 121.813C190.271 118.105 186.567 108.711 186.567 108.711L191.331 82.2824L192.391 76.2916L189.79 58.8746L192.653 57.3662C193.62 56.9893 194.483 56.3878 195.17 55.6114L196.361 74.5646L233.68 75.8906V54.5593" fill="#CAC7E7"/>
<path d="M233.747 10.5143C229.268 11.111 233.567 10.2283 233.747 10.5143C235.054 12.4022 231.821 13.1351 233.747 10.5143C235.219 10.5926 235.886 14.9353 233.747 10.5143C233.536 10.2104 229.115 6.64222 228.701 6.38117C225.618 4.48706 221.056 2.70106 215.689 2.29733C212.88 2.08519 209.624 2.27543 207.824 3.23891C206.836 3.76855 206.412 4.47063 205.415 4.9907C203.492 6.00071 200.022 6.12525 197.6 6.90671C196.307 7.31729 195.37 7.91262 194.454 8.49016C193.463 9.1156 192.444 9.76705 192.129 10.5143C191.5 12.0074 187.977 13.3664 188.395 14.8732C189.339 18.244 186.825 21.2987 188.395 24.6244C189.311 26.5637 193.429 27.9295 197.688 28.622C199.189 28.867 200.903 29.1106 201.605 29.7374C201.919 30.0111 201.973 30.3273 202.269 30.6037C203.263 31.5261 206.531 31.5617 208.287 30.8897C210.042 30.2178 201.397 25.6385 201.605 24.6244C202.448 20.1956 207.569 19.3129 208.044 14.8732C208.186 13.5306 208.038 18.7682 210.803 18.1606C214.525 17.3394 218.727 18.0908 224.114 11.6858C226.052 13.7375 226.464 16.0019 225.29 18.1606C224.639 19.3417 223.513 20.4872 223.431 21.7052C223.308 23.5596 225.608 25.2539 227.596 26.8935C228.023 27.2001 228.308 27.5399 228.436 27.8939C228.468 28.2531 228.314 28.6108 227.986 28.9409C226.863 30.2561 224.925 31.4769 224.705 32.8769C224.641 33.0404 224.725 33.2083 224.941 33.345C225.163 33.4362 225.449 33.4922 225.753 33.5037C229.15 33.7569 232.089 32.4472 233.747 31.132C235.595 29.6794 236.672 28.0651 236.899 26.4076C237.242 23.6212 234.945 20.8799 235.087 18.0908C235.25 14.9198 235.675 13.5731 233.747 10.5143Z" fill="#3E373A"/>
<path d="M231.048 188.42L246.797 188.925L244.538 177.245L232.473 178.392L231.048 188.42Z" fill="#C3C7D9"/>
<path d="M279.848 160.737C278.788 162.059 274.687 164.441 274.29 165.235C273.893 166.029 268.998 168.411 266.481 168.808C263.964 169.205 256.028 170.928 254.571 171.853C253.527 172.52 245.146 174.632 239.639 175.803C238.148 176.156 236.638 176.428 235.117 176.617C232.735 176.748 206.668 167.883 206.668 167.883L211.694 162.722L211.972 162.627C213.393 162.146 219.96 159.927 223.604 158.871C227.709 157.68 232.473 152.785 232.473 152.785C232.473 152.785 239.484 150.403 240.413 150.137C241.342 149.871 238.031 140.874 238.031 140.874C238.031 140.874 253.249 138.762 259.204 136.972C265.159 135.181 278.923 135.844 281.436 142.86C283.949 149.875 280.924 159.415 279.848 160.737Z" fill="#4B4B5B"/>
<path d="M210.503 183.1C210.503 183.1 207.462 186.276 204.417 186.014C201.372 185.752 190.724 186.808 190.724 186.808C188.794 187.578 186.987 188.625 185.36 189.917C182.871 191.878 181.549 190.314 181.303 189.98L181.259 189.917C179.933 194.089 176.892 190.909 176.892 190.909C176.892 190.909 178.214 178.205 177.809 176.617C177.404 175.029 180.425 172.302 180.425 172.302L183.999 171.393L193.05 169.074L206.021 173.572L210.503 183.1Z" fill="#CAC7E7"/>
<path opacity="0.1" d="M183.983 171.393L181.303 189.981L181.259 189.917C179.933 194.09 176.892 190.91 176.892 190.91C176.892 190.91 178.214 178.205 177.809 176.617C177.404 175.029 180.425 172.302 180.425 172.302L183.983 171.393Z" fill="black"/>
<path opacity="0.1" d="M202.714 118.519C202.714 118.519 209.725 120.901 215.815 118.519Z" fill="black"/>
<path opacity="0.1" d="M226.649 123.021C226.649 123.021 229.559 124.474 231.81 123.021Z" fill="black"/>
<path opacity="0.1" d="M226.649 126.467C226.649 126.467 231.544 127.122 232.473 125.8Z" fill="black"/>
<path opacity="0.1" d="M225.061 133.871C225.061 133.871 234.256 132.68 236.539 131.092Z" fill="black"/>
<path opacity="0.1" d="M197.005 131.092C197.005 131.092 202.166 134.002 206.005 133.871Z" fill="black"/>
<path opacity="0.1" d="M239.635 175.803C238.144 176.156 236.634 176.428 235.113 176.617C232.731 176.748 206.664 167.883 206.664 167.883L211.69 162.722L211.968 162.627C212.762 163.186 213.413 163.667 213.877 164.032C216.065 165.755 218.177 163.504 218.971 163.504C219.765 163.504 226.645 169.193 226.645 169.193C226.645 169.193 232.997 170.65 234.057 171.972C235.117 173.294 238.822 173.032 239.481 173.957C239.679 174.243 239.703 174.946 239.635 175.803Z" fill="black"/>
<path d="M190.724 141.414C190.724 141.414 184.3 141.784 180.596 140.223C176.892 138.663 164.585 135.062 161.012 137.591C157.439 140.12 148.835 142.355 152.806 152.416C156.776 162.476 158.63 162.738 158.63 162.738C159.858 163.659 160.93 164.771 161.806 166.033C162.997 167.887 174.113 172.119 176.892 172.119C179.671 172.119 184.566 172.119 191.446 176.883C198.327 181.647 204.548 182.179 204.548 182.179C204.548 182.179 213.282 185.752 216.001 186.546C218.721 187.34 231.147 190.778 234.061 189.722C236.975 188.666 238.825 182.044 238.825 182.044C238.825 182.044 240.147 176.089 239.484 175.164C238.821 174.239 235.117 174.501 234.061 173.179C233.005 171.857 226.649 170.4 226.649 170.4C226.649 170.4 219.785 164.707 218.991 164.707C218.197 164.707 216.085 166.954 213.897 165.235C209.54 162.007 204.962 159.089 200.196 156.501C195.17 153.853 190.724 141.414 190.724 141.414Z" fill="#4B4B5B"/>
<path opacity="0.1" d="M177.809 145.254C178.953 145.02 180.135 145.053 181.264 145.352C182.392 145.65 183.437 146.205 184.316 146.973C187.492 149.621 198.18 154.937 198.18 154.937" fill="black"/>
<path opacity="0.1" d="M257.219 145.087C257.219 145.087 243.058 147.231 240.413 150.141Z" fill="black"/>
<path d="M273.496 188.924H272.873C270.634 188.845 263.047 188.607 261.586 188.924C259.867 189.321 237.103 188.924 237.103 188.924L241.553 187.999C241.553 187.999 239.901 182.211 240.95 181.731C240.95 181.731 234.994 177.808 239.485 175.16C243.975 172.512 248.814 173.628 248.814 173.628L260.085 169.808L262.249 169.074C262.249 169.074 274.953 169.737 278.391 178.471C281.83 187.205 273.496 188.924 273.496 188.924Z" fill="#CAC7E7"/>
<path opacity="0.1" d="M273.496 188.925H272.873C276.569 185.876 284.93 176.593 260.085 169.828L262.249 169.094C262.249 169.094 274.953 169.757 278.391 178.491C281.829 187.225 273.496 188.925 273.496 188.925Z" fill="black"/>
<path d="M250.14 178.634C250.524 178.634 250.835 178.323 250.835 177.939C250.835 177.556 250.524 177.245 250.14 177.245C249.756 177.245 249.445 177.556 249.445 177.939C249.445 178.323 249.756 178.634 250.14 178.634Z" fill="#4B4B5B"/>
<path d="M246.103 179.781C246.486 179.781 246.797 179.47 246.797 179.087C246.797 178.703 246.486 178.392 246.103 178.392C245.719 178.392 245.408 178.703 245.408 179.087C245.408 179.47 245.719 179.781 246.103 179.781Z" fill="#4B4B5B"/>
<g opacity="0.1">
<path opacity="0.1" d="M226.431 32.269C226.585 27.9022 225.808 23.5527 224.152 19.5092C218.991 20.2794 213.338 16.2974 208.637 18.6794C205.159 20.4421 204.067 24.8608 203.873 28.7555C203.825 29.7837 203.817 30.812 203.837 31.8402C203.837 31.475 203.837 31.1058 203.873 30.7405C204.056 26.8459 205.147 22.4272 208.637 20.6645C213.338 18.2824 218.983 22.2525 224.152 21.4942C225.555 24.9192 226.327 28.5695 226.431 32.269V32.269Z" fill="black"/>
<path opacity="0.1" d="M186.436 31.5426C186.504 30.6775 186.487 29.8078 186.385 28.9461C185.964 25.4525 184.054 22.1136 183.709 18.7073C183.264 22.8163 185.88 26.7626 186.385 30.9312C186.436 31.1456 186.436 31.3361 186.436 31.5426Z" fill="black"/>
<path opacity="0.1" d="M207.355 67.1702C207.108 70.116 206.414 73.2642 204.179 75.2175C201.943 77.1708 197.826 77.0636 196.584 74.3878C196.187 73.5938 196.127 72.6687 195.742 71.8747C194.861 70.0564 192.693 69.3497 190.799 68.6391C185.42 66.6263 180.231 62.684 179.076 57.0425C178.972 56.5314 178.902 56.0142 178.865 55.4941C178.768 56.676 178.838 57.8656 179.076 59.0275C180.231 64.6531 185.428 68.6113 190.799 70.6241C192.693 71.3348 194.861 72.0415 195.742 73.8598C196.139 74.6538 196.207 75.5709 196.584 76.3728C197.834 79.0487 201.959 79.1519 204.179 77.2026C206.398 75.2533 207.089 72.101 207.355 69.1552C207.475 67.6047 207.517 66.049 207.478 64.4943C207.478 65.3955 207.426 66.2848 207.355 67.1702Z" fill="black"/>
<path opacity="0.1" d="M238.02 38.0892C238.02 38.6648 238.02 39.2365 238.02 39.8082C238.242 32.4239 240.949 24.9998 240.683 17.7703C240.477 24.4559 238.17 31.2924 238.02 38.0892Z" fill="black"/>
<path opacity="0.1" d="M229.5 67.9599C229.597 67.4889 229.628 67.0064 229.591 66.5267C229.431 65.4993 229.071 64.5132 228.531 63.6246C226.236 59.2575 223.62 54.7872 223.31 49.9397C223.31 50.1461 223.283 50.3367 223.279 50.559C223.12 55.9345 226.022 60.8535 228.531 65.6096C228.957 66.3463 229.283 67.1367 229.5 67.9599V67.9599Z" fill="black"/>
<path opacity="0.1" d="M240.302 62.2152C240.006 67.025 238.637 71.7076 236.297 75.9199C234.2 79.7352 230.496 83.5345 226.205 82.8001C225.82 82.7669 225.459 82.603 225.18 82.3356C225.1 82.2446 225.036 82.1397 224.994 82.0259C224.946 82.3356 224.906 82.6492 224.883 82.9668C224.8 83.4397 224.907 83.9258 225.18 84.3206C225.459 84.588 225.82 84.752 226.205 84.7851C230.496 85.5196 234.2 81.7202 236.297 77.9049C238.637 73.6927 240.006 69.01 240.302 64.2002C240.35 63.2712 240.354 62.3462 240.326 61.4211C240.318 61.6871 240.318 61.9492 240.302 62.2152Z" fill="black"/>
</g>
<path opacity="0.1" d="M240.949 181.731C240.949 181.731 250.998 185.947 257.624 176.617" stroke="black" stroke-miterlimit="10"/>
<path opacity="0.1" d="M242.927 189.099C242.927 189.099 251.133 183.764 261.586 188.925" stroke="black" stroke-miterlimit="10"/>
<path opacity="0.1" d="M187.996 187.888C187.996 187.888 191.442 180.115 200.645 186.042" stroke="black" stroke-miterlimit="10"/>
<path opacity="0.1" d="M176.825 72.9305L183.852 66.5784C183.852 66.5784 211.098 64.7918 212.226 74.054C212.226 74.054 221.885 63.0728 242.2 65.5184L250.795 72.3628L227.038 82.7882L203.952 90.7959L186.948 83.1852L176.825 72.9305Z" fill="black"/>
<path d="M176.825 73.3275L183.852 66.9753C183.852 66.9753 211.098 65.1888 212.226 74.451C212.226 74.451 221.885 63.4698 242.2 65.9153L250.795 72.7598L227.038 83.1852L203.952 91.1929L186.948 83.5822L176.825 73.3275Z" fill="#D5D6DB"/>
<path opacity="0.1" d="M173.716 74.1216L176.825 111.309L209.776 112.965L208.347 75.9359L208.319 75.3126L173.716 74.1216Z" fill="black"/>
<path d="M173.716 73.3276L176.825 110.515L209.776 112.171L208.347 75.142L208.319 74.5187L173.716 73.3276Z" fill="#EDB613"/>
<path opacity="0.1" d="M252.304 73.3276L218.312 78.4252V115.78L251.53 110.98L252.304 73.3276Z" fill="black"/>
<path d="M252.304 72.5337L218.312 77.6313V114.986L251.53 110.186L252.304 72.5337Z" fill="#EDB613"/>
<path opacity="0.3" d="M244.288 81.6489L225.927 83.6896L226.328 89.9464L244.276 87.9852L244.288 81.6489Z" fill="white"/>
<path d="M178.611 130.429L180.481 135.459C180.481 135.459 183.26 137.841 186.301 136.65C189.342 135.459 191.994 134.868 193.316 133.709C194.638 132.549 196.492 126.725 196.492 126.725C196.492 126.725 198.346 120.373 200.196 118.785C202.047 117.197 206.946 95.3178 200.196 97.4577C193.447 99.5976 188.286 119.448 188.286 119.448C188.286 119.448 187.095 120.901 185.376 121.036C183.657 121.171 180.215 120.77 179.552 122.227C178.889 123.684 176.626 127.519 178.611 130.429Z" fill="#6F7CBE"/>
<path opacity="0.1" d="M218.312 78.4213C216.572 78.8135 214.764 78.793 213.033 78.3614C211.302 77.9299 209.696 77.0993 208.343 75.936L209.776 112.961C209.776 112.961 213.151 116.614 218.312 115.78V78.4213Z" fill="black"/>
<path d="M218.312 77.6274C216.572 78.0195 214.764 77.999 213.033 77.5675C211.302 77.1359 209.696 76.3053 208.343 75.1421L209.776 112.167C209.776 112.167 213.151 115.82 218.312 114.986V77.6274Z" fill="#EDB613"/>
<path opacity="0.1" d="M218.312 77.6274C216.572 78.0195 214.764 77.999 213.033 77.5675C211.302 77.1359 209.696 76.3053 208.343 75.1421L209.776 112.167C209.776 112.167 213.151 115.82 218.312 114.986V77.6274Z" fill="black"/>
<path opacity="0.1" d="M219.106 73.4548C219.106 73.4548 232.934 69.2266 236.539 69.8221Z" fill="black"/>
<path opacity="0.1" d="M203.639 71.6087C203.639 71.6087 190.236 68.4326 187.996 69.3339Z" fill="black"/>
<path opacity="0.1" d="M227.824 73.9827C227.824 73.9827 237.071 70.5923 240.413 72.2041Z" fill="black"/>
<path opacity="0.1" d="M223.167 159.034C224.6 157.958 226.125 157.01 227.725 156.203C230.107 155.056 234.474 152.078 234.474 152.078" fill="black"/>
<path opacity="0.1" d="M187.996 118.519C187.996 118.519 182.196 123.263 180.453 123.68C178.71 124.097 177.635 127.797 177.635 127.797" fill="black"/>
<path d="M248.894 129.723L247.044 134.765C247.044 134.765 244.264 137.147 241.219 135.956C238.174 134.765 235.53 134.173 234.204 133.014C232.878 131.854 231.028 126.03 231.028 126.03C231.028 126.03 229.178 119.678 227.324 118.09C225.47 116.502 220.575 94.623 227.324 96.7629C234.073 98.9028 239.234 118.753 239.234 118.753C239.234 118.753 240.425 120.206 242.144 120.341C243.864 120.476 247.306 120.075 247.969 121.532C248.632 122.989 250.879 126.824 248.894 129.723Z" fill="#6F7CBE"/>
<path opacity="0.1" d="M245.65 120.449C245.65 120.449 249.441 122.886 249.426 125.8Z" fill="black"/>
<path d="M213.48 49.7888C223.275 49.7888 231.215 41.8489 231.215 32.0544C231.215 22.26 223.275 14.3201 213.48 14.3201C203.686 14.3201 195.746 22.26 195.746 32.0544C195.746 41.8489 203.686 49.7888 213.48 49.7888Z" fill="#6F7CBE"/>
<path d="M202.344 27.2945C204.496 26.957 206.382 25.7064 208.438 24.9879C213.04 23.372 218.129 24.4797 222.786 25.9367C224.573 26.4965 226.387 27.1277 228.261 27.1277C230.135 27.1277 232.124 26.3615 233.081 24.7457C233.962 23.2609 233.791 21.3314 233.049 19.7712C232.307 18.2109 231.064 16.9564 229.809 15.7733C225.68 11.8747 220.559 8.23012 214.894 8.62713C212.615 8.7899 210.435 9.60377 208.339 10.505C205.7 11.6424 203.13 12.9363 200.645 14.3798C198.735 15.4874 195.198 16.9683 194.098 18.993C191.597 23.5547 198.454 27.9059 202.344 27.2945Z" fill="#3E373A"/>
<path opacity="0.1" d="M233.081 23.0781C232.124 24.694 230.135 25.4602 228.261 25.4602C226.387 25.4602 224.573 24.8528 222.782 24.293C218.125 22.836 213.04 21.7243 208.434 23.3441C206.382 24.0627 204.492 25.3292 202.34 25.6468C199.204 26.1391 194.154 23.4077 193.606 19.9338C192.991 23.9476 198.847 27.3857 202.34 26.8378C204.492 26.5004 206.382 25.2498 208.434 24.5352C213.04 22.9154 218.125 24.027 222.782 25.484C224.573 26.0438 226.383 26.675 228.261 26.6512C230.139 26.6274 232.124 25.889 233.081 24.2692C233.577 23.388 233.772 22.3691 233.637 21.367C233.575 21.9703 233.385 22.5536 233.081 23.0781Z" fill="black"/>
<path d="M377 238.237C377 238.237 379.355 241.314 375.913 245.963C372.471 250.612 369.636 254.534 370.779 257.432C370.779 257.432 375.972 248.801 380.196 248.678C384.42 248.555 381.641 243.426 377 238.237Z" fill="#EDB613"/>
<path opacity="0.1" d="M377 238.237C377.205 238.534 377.367 238.859 377.481 239.202C381.602 244.045 383.801 248.567 379.835 248.678C376.143 248.786 371.716 255.388 370.656 257.051C370.69 257.186 370.731 257.318 370.779 257.448C370.779 257.448 375.972 248.817 380.196 248.694C384.421 248.571 381.641 243.426 377 238.237Z" fill="black"/>
<path d="M381.368 242.159C381.368 243.243 381.245 244.121 381.098 244.121C380.951 244.121 380.824 243.243 380.824 242.159C380.824 241.076 380.975 241.588 381.125 241.588C381.276 241.588 381.368 241.076 381.368 242.159Z" fill="#FFD037"/>
<path d="M382.872 243.454C381.923 243.97 381.094 244.283 381.022 244.152C380.951 244.021 381.661 243.493 382.61 242.961C383.559 242.429 383.186 242.819 383.257 242.961C383.329 243.104 383.825 242.934 382.872 243.454Z" fill="#FFD037"/>
<path d="M364.558 238.237C364.558 238.237 362.204 241.314 365.646 245.963C369.088 250.612 371.923 254.534 370.775 257.432C370.775 257.432 365.586 248.801 361.358 248.678C357.13 248.555 359.929 243.426 364.558 238.237Z" fill="#EDB613"/>
<path opacity="0.1" d="M364.558 238.237C364.353 238.534 364.191 238.859 364.078 239.202C359.957 244.045 357.757 248.567 361.723 248.678C365.412 248.786 369.842 255.388 370.902 257.051C370.869 257.186 370.827 257.319 370.775 257.448C370.775 257.448 365.586 248.817 361.358 248.694C357.13 248.571 359.929 243.426 364.558 238.237Z" fill="black"/>
<path d="M360.183 242.159C360.183 243.243 360.302 244.121 360.453 244.121C360.604 244.121 360.727 243.243 360.727 242.159C360.727 241.076 360.572 241.588 360.425 241.588C360.278 241.588 360.183 241.076 360.183 242.159Z" fill="#FFD037"/>
<path d="M358.682 243.454C359.631 243.97 360.461 244.283 360.532 244.152C360.604 244.021 359.893 243.493 358.944 242.961C357.995 242.429 358.369 242.819 358.297 242.961C358.226 243.104 357.729 242.934 358.682 243.454Z" fill="#FFD037"/>
<path opacity="0.1" d="M370.779 280.983C384.373 280.983 395.394 279.293 395.394 277.208C395.394 275.123 384.373 273.432 370.779 273.432C357.185 273.432 346.165 275.123 346.165 277.208C346.165 279.293 357.185 280.983 370.779 280.983Z" fill="#EDB613"/>
<path d="M383.448 253.284L383.329 254.244L383.162 255.602L383.095 256.17L382.928 257.528L382.856 258.095L382.694 259.449L380.808 274.893C380.641 276.27 378.39 277.346 375.671 277.346H365.884C363.165 277.346 360.918 276.27 360.747 274.893L358.861 259.449L358.694 258.095L358.627 257.528L358.46 256.17L358.389 255.602L358.226 254.244L358.107 253.284C358.016 252.49 359.23 251.846 360.771 251.846H380.788C382.324 251.846 383.543 252.502 383.448 253.284Z" fill="#65617D"/>
<path d="M383.329 254.245L383.166 255.602H358.393L358.226 254.245H383.329Z" fill="#9D9CB5"/>
<path d="M383.094 256.17L382.932 257.528H358.627L358.46 256.17H383.094Z" fill="#9D9CB5"/>
<path d="M382.86 258.096L382.693 259.453H358.861L358.698 258.096H382.86Z" fill="#9D9CB5"/>
<defs>
<linearGradient id="paint0_linear" x1="217.093" y1="192.069" x2="217.093" y2="-7.19758" gradientUnits="userSpaceOnUse">
<stop stop-color="#808080" stop-opacity="0.25"/>
<stop offset="0.54" stop-color="#808080" stop-opacity="0.12"/>
<stop offset="1" stop-color="#808080" stop-opacity="0.1"/>
</linearGradient>
</defs>
</svg>
